<svg xmlns="http://www.w3.org/2000/svg" width="1920" height="960" viewBox="0 0 1920 960" role="img" aria-label="Fantasy MMAdness premium prize pot arena background">
  <defs>
    <linearGradient id="base" x1="0" x2="1" y1="0" y2="1">
      <stop offset="0" stop-color="#080912"/>
      <stop offset="0.36" stop-color="#18070d"/>
      <stop offset="0.62" stop-color="#0a0b14"/>
      <stop offset="1" stop-color="#02040a"/>
    </linearGradient>
    <radialGradient id="redBurst" cx="19%" cy="30%" r="58%">
      <stop offset="0" stop-color="#ff2a3f" stop-opacity="0.88"/>
      <stop offset="0.36" stop-color="#8f0d19" stop-opacity="0.34"/>
      <stop offset="1" stop-color="#05060b" stop-opacity="0"/>
    </radialGradient>
    <radialGradient id="goldBurst" cx="62%" cy="22%" r="54%">
      <stop offset="0" stop-color="#ffd684" stop-opacity="0.72"/>
      <stop offset="0.38" stop-color="#a46816" stop-opacity="0.27"/>
      <stop offset="1" stop-color="#05060b" stop-opacity="0"/>
    </radialGradient>
    <radialGradient id="blueBurst" cx="86%" cy="36%" r="54%">
      <stop offset="0" stop-color="#2d75ff" stop-opacity="0.52"/>
      <stop offset="0.43" stop-color="#123b8f" stop-opacity="0.22"/>
      <stop offset="1" stop-color="#05060b" stop-opacity="0"/>
    </radialGradient>
    <linearGradient id="card" x1="0" x2="1" y1="0" y2="1">
      <stop offset="0" stop-color="#1b202d" stop-opacity="0.96"/>
      <stop offset="0.62" stop-color="#080b13" stop-opacity="0.9"/>
      <stop offset="1" stop-color="#05060b" stop-opacity="0.82"/>
    </linearGradient>
    <linearGradient id="redGold" x1="0" x2="1">
      <stop offset="0" stop-color="#ff2439"/>
      <stop offset="1" stop-color="#ffc86a"/>
    </linearGradient>
    <linearGradient id="coin" x1="0" x2="1" y1="0" y2="1">
      <stop offset="0" stop-color="#fff4ad"/>
      <stop offset="0.46" stop-color="#ffc75f"/>
      <stop offset="1" stop-color="#9f610c"/>
    </linearGradient>
    <pattern id="grid" width="84" height="84" patternUnits="userSpaceOnUse">
      <path d="M84 0H0V84" fill="none" stroke="#fff" stroke-opacity="0.055" stroke-width="1"/>
    </pattern>
    <filter id="shadow" x="-30%" y="-30%" width="160%" height="160%">
      <feDropShadow dx="0" dy="18" stdDeviation="18" flood-color="#000" flood-opacity="0.62"/>
    </filter>
    <filter id="glow" x="-40%" y="-40%" width="180%" height="180%">
      <feGaussianBlur stdDeviation="10" result="blur"/>
      <feMerge>
        <feMergeNode in="blur"/>
        <feMergeNode in="SourceGraphic"/>
      </feMerge>
    </filter>
  </defs>

  <rect width="1920" height="960" fill="url(#base)"/>
  <rect width="1920" height="960" fill="url(#redBurst)"/>
  <rect width="1920" height="960" fill="url(#goldBurst)"/>
  <rect width="1920" height="960" fill="url(#blueBurst)"/>
  <rect width="1920" height="960" fill="url(#grid)" opacity="0.78"/>

  <g opacity="0.26" filter="url(#glow)">
    <path d="M250 -30 626 960H514L134 -30Z" fill="#ff2a3f" opacity="0.52"/>
    <path d="M940 -30 702 960H596L830 -30Z" fill="#ffd684" opacity="0.38"/>
    <path d="M1580 -30 1236 960h-116L1442 -30Z" fill="#2d75ff" opacity="0.42"/>
  </g>

  <g transform="translate(890 244)" opacity="0.24">
    <path d="M0 112 264 0l344 78 164 286-176 286-350 78L-20 572-104 332Z" fill="none" stroke="#fff" stroke-width="3"/>
    <path d="M58 146 278 54l286 66 136 238-146 240-292 64L40 532-30 334Z" fill="none" stroke="#ff3045" stroke-width="2" opacity="0.88"/>
    <path d="M120 192 298 116l232 54 110 192-118 194-236 52-180-106-56-160Z" fill="none" stroke="#ffd684" stroke-width="2" opacity="0.7"/>
  </g>

  <g transform="translate(1092 114) rotate(4)" filter="url(#shadow)">
    <rect width="430" height="118" rx="30" fill="url(#card)" stroke="#ffd684" stroke-opacity="0.4"/>
    <text x="32" y="52" fill="#ffd684" font-family="Impact, Arial Black, sans-serif" font-size="42" letter-spacing="5">$25K+ PRIZE POT</text>
    <text x="34" y="86" fill="#fff" fill-opacity="0.82" font-family="Arial Black, Arial, sans-serif" font-size="15" letter-spacing="4">FIGHT NIGHT CASH POOLS</text>
    <rect x="30" y="98" width="354" height="6" rx="3" fill="url(#redGold)" opacity="0.86"/>
  </g>

  <g transform="translate(660 82) rotate(-3)" filter="url(#shadow)" opacity="0.96">
    <rect width="360" height="104" rx="28" fill="url(#card)" stroke="#fff" stroke-opacity="0.13"/>
    <text x="28" y="43" fill="#fff" font-family="Impact, Arial Black, sans-serif" font-size="30" letter-spacing="4">FANTASY MMADNESS</text>
    <text x="30" y="76" fill="#ff3045" font-family="Arial Black, Arial, sans-serif" font-size="17" letter-spacing="4">PICK • PLAY • WIN</text>
  </g>

  <g transform="translate(176 168) rotate(-8)" filter="url(#shadow)" opacity="0.92">
    <rect width="306" height="82" rx="41" fill="url(#card)" stroke="#ffd684" stroke-opacity="0.38"/>
    <circle cx="46" cy="41" r="20" fill="#ff3045"/>
    <text x="39" y="49" fill="#fff" font-family="Arial Black, Arial, sans-serif" font-size="25">$</text>
    <text x="80" y="38" fill="#ffd684" font-family="Impact, Arial Black, sans-serif" font-size="19" letter-spacing="3">WIN MONEY</text>
    <text x="80" y="62" fill="#fff" fill-opacity="0.78" font-family="Arial Black, Arial, sans-serif" font-size="12" letter-spacing="2.6">FIGHT CARD</text>
  </g>

  <g transform="translate(1216 424) rotate(-4)" filter="url(#shadow)" opacity="0.9">
    <rect width="404" height="114" rx="30" fill="url(#card)" stroke="#2d75ff" stroke-opacity="0.36"/>
    <text x="32" y="47" fill="#fff" font-family="Impact, Arial Black, sans-serif" font-size="30" letter-spacing="4">LIVE LEADERBOARD</text>
    <text x="32" y="78" fill="#ffd684" font-family="Arial Black, Arial, sans-serif" font-size="15" letter-spacing="4">CLIMB CASH RANKINGS</text>
    <rect x="32" y="92" width="144" height="8" rx="4" fill="#ff3045" opacity="0.88"/>
    <rect x="188" y="92" width="152" height="8" rx="4" fill="#ffd684" opacity="0.72"/>
  </g>

  <g transform="translate(836 660) rotate(6)" filter="url(#shadow)" opacity="0.72">
    <rect width="360" height="96" rx="28" fill="url(#card)" stroke="#ff3045" stroke-opacity="0.34"/>
    <text x="28" y="42" fill="#fff" font-family="Impact, Arial Black, sans-serif" font-size="27" letter-spacing="4">TOKEN JACKPOT</text>
    <text x="30" y="70" fill="#ffd684" font-family="Arial Black, Arial, sans-serif" font-size="14" letter-spacing="3.5">PREDICT EVERY CARD</text>
  </g>

  <g transform="translate(1468 616)" opacity="0.78" filter="url(#shadow)">
    <circle cx="0" cy="0" r="42" fill="url(#coin)"/>
    <circle cx="54" cy="24" r="42" fill="url(#coin)"/>
    <circle cx="-48" cy="35" r="42" fill="url(#coin)"/>
    <circle cx="12" cy="58" r="42" fill="url(#coin)"/>
    <text x="-10" y="17" fill="#3a2102" font-family="Arial Black, Arial, sans-serif" font-size="42">$</text>
  </g>

  <g transform="translate(352 656)" opacity="0.21">
    <text x="0" y="0" fill="#fff" font-family="Impact, Arial Black, sans-serif" font-size="136" letter-spacing="10">FANTASY</text>
    <text x="94" y="116" fill="#ff3045" font-family="Impact, Arial Black, sans-serif" font-size="132" letter-spacing="8">MMADNESS</text>
  </g>

  <g opacity="0.32">
    <path d="M0 772c320-70 602-88 888-56 380 42 656 80 1032 20v224H0Z" fill="#010207"/>
    <path d="M0 806c410-72 748-68 1086-16 314 48 550 38 834-20" fill="none" stroke="#ff3045" stroke-opacity="0.3" stroke-width="3"/>
    <path d="M0 846c366-48 662-44 924-8 382 52 650 52 996 4" fill="none" stroke="#ffd684" stroke-opacity="0.18" stroke-width="2"/>
  </g>
</svg>
